<svg xmlns="http://www.w3.org/2000/svg" xmlns:xlink="http://www.w3.org/1999/xlink" viewBox="0,0,256,256" width="96px" height="96px"><g transform="translate(-14.08,-14.08) scale(1.11,1.11)"><g fill="#1f1e1c" fill-rule="nonzero" stroke="none" stroke-width="1" stroke-linecap="butt" stroke-linejoin="miter" stroke-miterlimit="10" stroke-dasharray="" stroke-dashoffset="0" font-family="none" font-weight="none" font-size="none" text-anchor="none" style="mix-blend-mode: normal"><path d="M12.68468,243.31532v-230.63063h230.63063v230.63063z" id="bgRectangle"></path></g><g fill="#0fd2ff" fill-rule="nonzero" stroke="none" stroke-width="1" stroke-linecap="butt" stroke-linejoin="miter" stroke-miterlimit="10" stroke-dasharray="" stroke-dashoffset="0" font-family="none" font-weight="none" font-size="none" text-anchor="none" style="mix-blend-mode: normal"><g transform="scale(2.66667,2.66667)"><path d="M75.399,32h-54.544c-4.315,0 -6.892,-2.527 -6.892,-6.76c0,-0.98 0.011,-2.001 0.021,-2.929c0.008,-0.754 0.016,-1.444 0.016,-1.997c0,-3.776 2.411,-6.314 6,-6.314h42c1.044,0 1.963,0.533 2.5,1.341c0.537,-0.808 1.456,-1.341 2.5,-1.341c0.569,0 1.604,0.009 2.791,0.02c1.574,0.014 3.422,0.031 4.792,0.031c4.922,0 7.417,2.153 7.417,6.4c0,0.563 0.008,1.262 0.016,2.023c0.008,0.766 0.017,1.595 0.02,2.419c0.006,1.521 -0.173,3.732 -1.788,5.355c-1.159,1.163 -2.79,1.752 -4.849,1.752zM20.03,25.908c0.116,0.036 0.367,0.092 0.825,0.092h54.544c0.264,0 0.443,-0.02 0.558,-0.041c0.037,-0.17 0.08,-0.491 0.078,-1.043c-0.003,-0.811 -0.012,-1.626 -0.02,-2.378c-0.007,-0.786 -0.015,-1.506 -0.015,-2.087c0,-0.135 -0.007,-0.242 -0.016,-0.323c-0.236,-0.042 -0.656,-0.078 -1.401,-0.078c-1.386,0 -3.254,-0.017 -4.846,-0.031c-1.164,-0.01 -2.178,-0.019 -2.737,-0.019c-1.044,0 -1.963,-0.533 -2.5,-1.341c-0.537,0.808 -1.456,1.341 -2.5,1.341h-41.983c-0.01,0.08 -0.017,0.184 -0.017,0.314c0,0.571 -0.008,1.283 -0.016,2.061c-0.01,0.907 -0.021,1.906 -0.021,2.865c0.001,0.359 0.04,0.565 0.067,0.668zM19.788,20.019v0z" opacity="0.3"></path><path d="M75.399,31h-54.544c-3.744,0 -5.892,-2.1 -5.892,-5.76c0,-0.977 0.011,-1.994 0.021,-2.918c0.008,-0.758 0.016,-1.452 0.016,-2.008c0,-3.228 1.963,-5.314 5,-5.314h42c1.104,0 2,0.896 2,2c0,1.104 -0.896,2 -2,2h-42c-0.559,0 -1,0 -1,1.314c0,0.568 -0.008,1.276 -0.016,2.05c-0.01,0.911 -0.021,1.913 -0.021,2.875c0,1.342 0.261,1.76 1.892,1.76h54.544c0.642,0 1.13,-0.105 1.305,-0.281c0.102,-0.102 0.336,-0.481 0.331,-1.808c-0.003,-0.813 -0.012,-1.63 -0.02,-2.385c-0.007,-0.78 -0.015,-1.496 -0.015,-2.074c0,-1.159 0,-1.4 -2.417,-1.4c-1.383,0 -3.247,-0.017 -4.837,-0.031c-1.168,-0.011 -2.185,-0.02 -2.746,-0.02c-1.104,0 -2,-0.896 -2,-2c0,-1.104 0.896,-2 2,-2c0.568,0 1.599,0.009 2.782,0.02c1.577,0.014 3.428,0.031 4.801,0.031c1.755,0 6.417,0 6.417,5.4c0,0.566 0.008,1.268 0.016,2.034c0.008,0.764 0.017,1.59 0.02,2.412c0.005,1.343 -0.144,3.287 -1.497,4.646c-0.965,0.966 -2.356,1.457 -4.14,1.457z" opacity="0.3"></path><path d="M75.399,56.932h-54.544c-4.315,0 -6.892,-2.527 -6.892,-6.761c0,-0.98 0.011,-2 0.021,-2.928c0.008,-0.753 0.016,-1.444 0.016,-1.997c0,-3.776 2.411,-6.313 6,-6.313h42c1.044,0 1.963,0.533 2.5,1.341c0.537,-0.809 1.456,-1.341 2.5,-1.341c0.569,0 1.604,0.009 2.791,0.02c1.574,0.014 3.422,0.03 4.792,0.03c4.922,0 7.417,2.153 7.417,6.4c0,0.564 0.008,1.262 0.016,2.024c0.008,0.766 0.017,1.595 0.02,2.419c0.006,1.521 -0.173,3.732 -1.789,5.354c-1.158,1.163 -2.789,1.752 -4.848,1.752zM20.03,50.84c0.116,0.036 0.367,0.092 0.825,0.092h54.544c0.264,0 0.443,-0.02 0.558,-0.041c0.037,-0.17 0.08,-0.491 0.078,-1.043c-0.003,-0.812 -0.012,-1.626 -0.02,-2.379c-0.007,-0.785 -0.015,-1.505 -0.015,-2.087c0,-0.135 -0.007,-0.242 -0.016,-0.323c-0.236,-0.042 -0.656,-0.078 -1.401,-0.078c-1.386,0 -3.253,-0.017 -4.846,-0.03c-1.164,-0.011 -2.179,-0.02 -2.737,-0.02c-1.044,0 -1.963,-0.533 -2.5,-1.341c-0.537,0.809 -1.456,1.341 -2.5,1.341h-41.983c-0.01,0.081 -0.017,0.184 -0.017,0.315c0,0.571 -0.008,1.284 -0.016,2.061c-0.01,0.908 -0.021,1.906 -0.021,2.864c0.001,0.359 0.04,0.566 0.067,0.669z" opacity="0.3"></path><path d="M75.399,55.932h-54.544c-3.744,0 -5.892,-2.1 -5.892,-5.761c0,-0.977 0.011,-1.993 0.021,-2.917c0.008,-0.758 0.016,-1.452 0.016,-2.008c0,-3.228 1.963,-5.313 5,-5.313h42c1.104,0 2,0.896 2,2c0,1.104 -0.896,2 -2,2h-42c-0.559,0 -1,0 -1,1.313c0,0.568 -0.008,1.277 -0.016,2.05c-0.01,0.911 -0.021,1.913 -0.021,2.875c0,1.343 0.261,1.761 1.892,1.761h54.544c0.642,0 1.13,-0.105 1.305,-0.281c0.102,-0.102 0.336,-0.481 0.331,-1.808c-0.003,-0.813 -0.012,-1.63 -0.02,-2.385c-0.007,-0.781 -0.015,-1.497 -0.015,-2.076c0,-1.159 0,-1.4 -2.417,-1.4c-1.383,0 -3.247,-0.017 -4.836,-0.03c-1.169,-0.01 -2.187,-0.02 -2.747,-0.02c-1.104,0 -2,-0.896 -2,-2c0,-1.104 0.896,-2 2,-2c0.568,0 1.599,0.009 2.782,0.02c1.577,0.014 3.428,0.03 4.801,0.03c1.755,0 6.417,0 6.417,5.4c0,0.567 0.008,1.269 0.016,2.034c0.008,0.764 0.017,1.591 0.02,2.412c0.005,1.343 -0.144,3.287 -1.497,4.646c-0.965,0.967 -2.357,1.458 -4.14,1.458z" opacity="0.3"></path><path d="M75.399,82h-54.544c-4.315,0 -6.892,-2.527 -6.892,-6.76c0,-0.98 0.011,-2.001 0.021,-2.929c0.008,-0.754 0.016,-1.444 0.016,-1.997c0,-3.776 2.411,-6.314 6,-6.314h42c1.044,0 1.963,0.533 2.5,1.341c0.537,-0.808 1.456,-1.341 2.5,-1.341c0.569,0 1.604,0.009 2.791,0.02c1.574,0.014 3.422,0.031 4.792,0.031c4.922,0 7.417,2.153 7.417,6.4c0,0.563 0.008,1.262 0.016,2.023c0.008,0.766 0.017,1.595 0.02,2.419c0.006,1.521 -0.173,3.732 -1.788,5.355c-1.159,1.163 -2.79,1.752 -4.849,1.752zM20.03,75.908c0.116,0.036 0.367,0.092 0.825,0.092h54.544c0.264,0 0.443,-0.02 0.558,-0.041c0.037,-0.17 0.08,-0.491 0.078,-1.043c-0.003,-0.811 -0.012,-1.626 -0.02,-2.378c-0.007,-0.786 -0.015,-1.506 -0.015,-2.087c0,-0.135 -0.007,-0.242 -0.016,-0.323c-0.236,-0.042 -0.656,-0.078 -1.401,-0.078c-1.386,0 -3.254,-0.017 -4.846,-0.031c-1.164,-0.01 -2.178,-0.019 -2.737,-0.019c-1.044,0 -1.963,-0.533 -2.5,-1.341c-0.537,0.808 -1.456,1.341 -2.5,1.341h-41.983c-0.01,0.08 -0.017,0.184 -0.017,0.314c0,0.571 -0.008,1.283 -0.016,2.061c-0.01,0.907 -0.021,1.906 -0.021,2.865c0.001,0.359 0.04,0.565 0.067,0.668zM19.788,70.019v0z" opacity="0.3"></path><path d="M75.399,81h-54.544c-3.744,0 -5.892,-2.1 -5.892,-5.76c0,-0.977 0.011,-1.994 0.021,-2.918c0.008,-0.758 0.016,-1.452 0.016,-2.008c0,-3.228 1.963,-5.314 5,-5.314h42c1.104,0 2,0.896 2,2c0,1.104 -0.896,2 -2,2h-42c-0.559,0 -1,0 -1,1.314c0,0.568 -0.008,1.276 -0.016,2.05c-0.01,0.911 -0.021,1.913 -0.021,2.875c0,1.342 0.261,1.76 1.892,1.76h54.544c0.642,0 1.13,-0.105 1.305,-0.281c0.102,-0.102 0.336,-0.481 0.331,-1.808c-0.003,-0.813 -0.012,-1.63 -0.02,-2.385c-0.007,-0.78 -0.015,-1.496 -0.015,-2.074c0,-1.159 0,-1.4 -2.417,-1.4c-1.383,0 -3.247,-0.017 -4.837,-0.031c-1.168,-0.011 -2.185,-0.02 -2.746,-0.02c-1.104,0 -2,-0.896 -2,-2c0,-1.104 0.896,-2 2,-2c0.568,0 1.599,0.009 2.782,0.02c1.577,0.014 3.428,0.031 4.801,0.031c1.755,0 6.417,0 6.417,5.4c0,0.566 0.008,1.268 0.016,2.034c0.008,0.764 0.017,1.59 0.02,2.412c0.005,1.343 -0.144,3.287 -1.497,4.646c-0.965,0.966 -2.356,1.457 -4.14,1.457z" opacity="0.3"></path><path d="M75.399,30h-54.544c-3.2,0 -4.892,-1.646 -4.892,-4.76c0,-0.974 0.011,-1.986 0.021,-2.908c0.008,-0.761 0.016,-1.459 0.016,-2.018c0,-2.701 1.495,-4.314 4,-4.314h42c0.553,0 1,0.448 1,1c0,0.552 -0.447,1 -1,1h-42c-0.858,0 -2,0.24 -2,2.314c0,0.565 -0.008,1.27 -0.016,2.039c-0.01,0.915 -0.021,1.92 -0.021,2.886c0,1.986 0.811,2.76 2.892,2.76h54.544c0.97,0 1.628,-0.188 2.013,-0.575c0.431,-0.432 0.628,-1.232 0.623,-2.518c-0.003,-0.814 -0.012,-1.634 -0.02,-2.391c-0.007,-0.776 -0.015,-1.489 -0.015,-2.064c0,-2.053 -0.854,-2.4 -3.417,-2.4c-1.381,0 -3.241,-0.017 -4.828,-0.031c-1.171,-0.011 -2.192,-0.02 -2.755,-0.02c-0.553,0 -1,-0.448 -1,-1c0,-0.552 0.447,-1 1,-1c0.566,0 1.594,0.009 2.773,0.02c1.58,0.014 3.434,0.031 4.81,0.031c1.758,0 5.417,0 5.417,4.4c0,0.569 0.008,1.275 0.016,2.045c0.008,0.761 0.017,1.585 0.02,2.405c0.005,1.264 -0.127,2.854 -1.206,3.936c-0.78,0.783 -1.902,1.163 -3.431,1.163z"></path><path d="M75.399,54.932h-54.544c-3.2,0 -4.892,-1.646 -4.892,-4.761c0,-0.973 0.011,-1.986 0.021,-2.907c0.008,-0.761 0.016,-1.459 0.016,-2.018c0,-2.701 1.495,-4.313 4,-4.313h42c0.553,0 1,0.448 1,1c0,0.552 -0.447,1 -1,1h-42c-0.858,0 -2,0.24 -2,2.313c0,0.565 -0.008,1.271 -0.016,2.04c-0.01,0.915 -0.021,1.92 -0.021,2.886c0,1.987 0.811,2.761 2.892,2.761h54.544c0.969,0 1.628,-0.188 2.013,-0.575c0.431,-0.432 0.628,-1.231 0.623,-2.517c-0.003,-0.815 -0.012,-1.634 -0.02,-2.392c-0.007,-0.779 -0.015,-1.491 -0.015,-2.067c0,-2.053 -0.854,-2.4 -3.417,-2.4c-1.381,0 -3.241,-0.017 -4.827,-0.03c-1.172,-0.01 -2.193,-0.02 -2.756,-0.02c-0.553,0 -1,-0.448 -1,-1c0,-0.552 0.447,-1 1,-1c0.566,0 1.594,0.009 2.773,0.02c1.58,0.014 3.434,0.03 4.81,0.03c1.758,0 5.417,0 5.417,4.4c0,0.57 0.008,1.275 0.016,2.045c0.008,0.762 0.017,1.586 0.02,2.405c0.005,1.264 -0.127,2.854 -1.206,3.936c-0.78,0.783 -1.902,1.164 -3.431,1.164z"></path><path d="M75.399,80h-54.544c-3.2,0 -4.892,-1.646 -4.892,-4.76c0,-0.974 0.011,-1.986 0.021,-2.908c0.008,-0.761 0.016,-1.459 0.016,-2.018c0,-2.701 1.495,-4.314 4,-4.314h42c0.553,0 1,0.448 1,1c0,0.552 -0.447,1 -1,1h-42c-0.858,0 -2,0.24 -2,2.314c0,0.565 -0.008,1.27 -0.016,2.039c-0.01,0.915 -0.021,1.92 -0.021,2.886c0,1.986 0.811,2.76 2.892,2.76h54.544c0.97,0 1.628,-0.188 2.013,-0.575c0.431,-0.432 0.628,-1.232 0.623,-2.518c-0.003,-0.814 -0.012,-1.634 -0.02,-2.391c-0.007,-0.776 -0.015,-1.489 -0.015,-2.064c0,-2.053 -0.854,-2.4 -3.417,-2.4c-1.381,0 -3.241,-0.017 -4.828,-0.031c-1.171,-0.011 -2.192,-0.02 -2.755,-0.02c-0.553,0 -1,-0.448 -1,-1c0,-0.552 0.447,-1 1,-1c0.566,0 1.594,0.009 2.773,0.02c1.58,0.014 3.434,0.031 4.81,0.031c1.758,0 5.417,0 5.417,4.4c0,0.569 0.008,1.275 0.016,2.045c0.008,0.761 0.017,1.585 0.02,2.405c0.005,1.264 -0.127,2.854 -1.206,3.936c-0.78,0.783 -1.902,1.163 -3.431,1.163z"></path></g></g></g></svg>