<svg width="394" height="512" viewBox="0 0 394 512" fill="none" xmlns="http://www.w3.org/2000/svg">
<path d="M340.207 334.499L311.035 325.675L247.562 282.975V273.191C265.939 258.914 278.558 237.091 280.905 212.076C290.12 210.548 297.182 202.299 297.182 192.383V165.478C297.182 165.374 297.171 165.272 297.167 165.168V131.086C300.837 128.378 303.168 123.967 303.168 119.019V87.8293L346.97 80.1441C354.169 78.8813 359.347 72.9923 359.854 65.4891C360.362 57.9862 356.028 51.4143 349.071 49.1353L201.404 0.757251C198.324 -0.25275 195.068 -0.25175 191.989 0.75625L44.3203 49.1353C37.362 51.4143 33.0281 57.9862 33.5358 65.4882C33.8582 70.2553 36.0698 74.3652 39.4833 77.0572V117.844H39.1222C30.8066 117.844 24.0418 124.812 24.0418 133.377V153.623L14.3068 212.476C12.6242 222.655 20.2358 231.971 30.2844 231.971H63.2444C73.2705 231.971 80.9084 222.677 79.222 212.474L69.4872 153.623V133.377C69.4872 124.812 62.7221 117.844 54.4066 117.844H54.0464V81.4813L90.2541 87.8332V119.019C90.2541 123.946 92.5735 128.35 96.2278 131.062L96.2414 165.481V192.383C96.2414 202.301 103.303 210.548 112.519 212.076C114.864 237.078 127.469 258.891 145.829 273.168V282.998L82.3705 325.691L53.2202 334.503C22.027 343.934 0.00194067 373.431 0.00194067 407.719V430.07C0.00194067 434.213 3.26115 437.571 7.28346 437.571C11.3058 437.571 14.565 434.213 14.565 430.07V407.719C14.565 380.696 32.1464 356.506 57.3222 348.896L84.4832 340.685L192.993 407.097C195.196 408.446 198.111 408.517 200.432 407.097L308.95 340.681L336.107 348.893C361.278 356.504 378.86 380.692 378.86 407.714V480.152C378.86 489.442 371.521 497.002 362.502 497.002H330.407V464.674C330.407 460.532 327.149 457.175 323.126 457.175C319.104 457.175 315.844 460.53 315.844 464.674V497.002H77.5464V464.674C77.5464 460.532 74.2871 457.175 70.2648 457.175C66.2425 457.175 62.9834 460.53 62.9834 464.674V497.002H30.9223C21.9019 497.002 14.563 489.442 14.563 480.152V465.13C14.563 460.987 11.3039 457.63 7.28153 457.63C3.25922 457.63 0 460.987 0 465.13V480.152C0 497.713 13.8708 512 30.9213 512H362.5C379.551 512 393.421 497.713 393.421 480.152V407.714C393.421 374.233 372.147 344.159 340.207 334.499ZM63.2434 216.972H30.2844C29.266 216.972 28.4892 216.034 28.6621 214.993L37.4678 161.757H56.0599L64.8659 214.993C65.0376 216.031 64.2667 216.972 63.2434 216.972ZM54.9241 133.377V146.758H38.6029V133.377C38.6029 133.082 38.8348 132.843 39.1212 132.843H54.4046C54.692 132.842 54.9241 133.082 54.9241 133.377ZM170.669 373.171L173.567 377.76L99.2288 332.262L146.414 300.516C148.554 326.376 156.83 351.262 170.669 373.171ZM170.619 340.797C187.758 343.304 205.655 343.306 222.802 340.797C219.49 349.194 215.406 357.297 210.547 364.993L196.71 386.897L182.875 364.993C178.016 357.297 173.932 349.194 170.619 340.797ZM222.753 373.171C236.592 351.262 244.867 326.376 247.007 300.516L294.192 332.26L219.855 377.76L222.753 373.171ZM265.345 133.879H282.604V157.977H274.037C269.246 157.977 265.345 153.961 265.345 149.024V133.879ZM48.7338 63.4293L196.404 15.0492C196.593 14.9872 196.797 14.9862 196.99 15.0502L344.658 63.4293C344.963 63.5292 345.382 63.6652 345.329 64.4462C345.276 65.2262 344.843 65.3013 344.527 65.3572L295.703 73.9222L277.374 71.5873C273.386 71.0782 269.749 74.0002 269.255 78.1101C268.762 82.2213 271.596 85.9652 275.587 86.4733L288.608 88.1321V118.88L104.816 118.873V88.1312L180.162 78.5282C191.137 77.1312 202.264 77.1312 213.23 78.5282L241.747 82.1612C245.739 82.6703 249.374 79.7491 249.868 75.6391C250.361 71.5282 247.527 67.7843 243.535 67.2752L215.018 63.6422C202.866 62.0932 190.536 62.0932 178.375 63.6422L97.7016 73.9241L48.8639 65.3572C48.5474 65.3013 48.1154 65.2262 48.0619 64.4462C48.0096 63.6652 48.428 63.5282 48.7338 63.4293ZM110.8 157.977L110.79 133.879H128.076V149.025C128.076 153.961 124.177 157.978 119.383 157.978H110.8V157.977ZM126.826 208.221C126.451 202.114 121.523 197.331 115.607 197.331C112.958 197.331 110.802 195.11 110.802 192.382V172.977H119.383C132.205 172.977 142.638 162.232 142.638 149.025V133.879H250.782V149.025C250.782 162.232 261.216 172.977 274.037 172.977H282.618V192.382C282.618 195.11 280.464 197.331 277.814 197.331C271.897 197.331 266.97 202.114 266.596 208.223C264.277 246.091 233.578 275.755 196.71 275.755C159.841 275.755 129.145 246.091 126.826 208.221ZM196.71 290.755C209.662 290.755 221.97 287.705 233 282.281V287.035C233 299.859 231.32 312.507 228.086 324.706C208.299 328.594 185.927 328.749 165.335 324.706C162.101 312.509 160.422 299.859 160.422 287.035C160.422 286.876 160.4 286.722 160.391 286.564C160.389 286.533 160.392 286.501 160.39 286.472V282.268C171.427 287.699 183.748 290.755 196.71 290.755Z" fill="white"/>
</svg>
